<svg width="24" height="26" viewBox="0 0 24 26" fill="none" xmlns="http://www.w3.org/2000/svg">
<path d="M15.5 21.1666C15.5 22.6666 13.75 24.6666 12 24.6666M15.5 1.33325V5.41659M8.5 11.3377C14.4231 8.36476 16.5769 13.3198 22.5 11.8333M20.1667 1.33325H5C3.067 1.33325 1.5 2.90026 1.5 4.83325V24.6666M10.8333 21.1664H20.1667C21.4553 21.1664 22.5 20.1218 22.5 18.8331V7.74992C22.5 6.46125 21.4553 5.41659 20.1667 5.41659H10.8333C9.54467 5.41659 8.5 6.46126 8.5 7.74992V18.8331C8.5 20.1218 9.54467 21.1664 10.8333 21.1664Z" stroke="white" stroke-width="1.75" stroke-linecap="round" stroke-linejoin="round"/>
</svg>
