<svg width="88" height="88" viewBox="0 0 88 88" fill="none" xmlns="http://www.w3.org/2000/svg">
<path d="M43.9997 22.1957V74.4425M18.333 30.267C22.9742 30.9858 28.1515 32.1808 32.9997 34.0555M18.333 44.9337C20.6778 45.2968 23.1594 45.7815 25.6663 46.414M14.6455 11.0413C22.7796 11.9605 33.7078 14.4332 41.4947 19.8896C42.9913 20.9383 45.0081 20.9383 46.5047 19.8896C54.2915 14.4332 65.2198 11.9605 73.3538 11.0413C77.3795 10.5864 80.6663 13.9481 80.6663 18.0957V59.3998C80.6663 63.5474 77.3795 66.9103 73.3538 67.3652C65.2198 68.2843 54.2915 70.757 46.5047 76.2135C45.0081 77.2622 42.9913 77.2622 41.4947 76.2135C33.7078 70.757 22.7796 68.2843 14.6455 67.3652C10.6199 66.9103 7.33301 63.5474 7.33301 59.3998V18.0957C7.33301 13.9481 10.6199 10.5864 14.6455 11.0413Z" stroke="#A63AB3" stroke-width="5.5" stroke-linecap="round"/>
</svg>
