<svg width="28" height="28" viewBox="0 0 28 28" fill="none" xmlns="http://www.w3.org/2000/svg">
<path d="M11.0837 3.49977H12.2503C13.539 3.49977 14.5837 4.54444 14.5837 5.83311V10.4999C14.5837 13.7216 11.972 16.3333 8.75033 16.3333M6.41699 3.49977H5.25033C3.96166 3.49977 2.91699 4.54444 2.91699 5.83311V10.4999C2.91699 13.7216 5.52866 16.3333 8.75033 16.3333M8.75033 16.3333V19.2499C8.75033 22.7938 11.6232 25.6666 15.167 25.6666C18.7108 25.6666 21.5837 22.7938 21.5837 19.2499V18.0833M21.5837 18.0833C23.1945 18.0833 24.5003 16.7774 24.5003 15.1666C24.5003 13.5558 23.1945 12.2499 21.5837 12.2499C19.9728 12.2499 18.667 13.5558 18.667 15.1666C18.667 16.7774 19.9728 18.0833 21.5837 18.0833ZM11.0837 2.33325L11.0836 4.66636M6.41699 2.33327V4.66661" stroke="white" stroke-width="1.75" stroke-linecap="round" stroke-linejoin="round"/>
</svg>
