<svg width="80" height="80" viewBox="0 0 80 80" fill="none" xmlns="http://www.w3.org/2000/svg">
<path d="M62.0002 3.3335H18.0002C9.89999 3.3335 3.3335 9.89999 3.3335 18.0002V62.0002C3.3335 70.1003 9.89999 76.6668 18.0002 76.6668H62.0002C70.1003 76.6668 76.6668 70.1003 76.6668 62.0002V18.0002C76.6668 9.89999 70.1003 3.3335 62.0002 3.3335ZM62.0002 3.3335L47.3335 25.3335M3.3335 25.3335H76.6668M32.6668 3.3335L18.0002 25.3335M32.6668 46.6103V55.39C32.6668 59.7828 37.5626 62.403 41.2177 59.9663L47.8024 55.5764C51.0679 53.3994 51.0679 48.6009 47.8024 46.4239L41.2177 42.0341C37.5626 39.5974 32.6668 42.2175 32.6668 46.6103Z" stroke="#0063FF" stroke-width="5.5" stroke-linejoin="round"/>
</svg>
